<svg width="15" height="14" viewBox="0 0 15 14" fill="none" xmlns="http://www.w3.org/2000/svg">
<path fill-rule="evenodd" clip-rule="evenodd" d="M2.79229 3.5637C2.78235 3.45368 2.79543 3.3428 2.83071 3.23812C2.86599 3.13344 2.92269 3.03726 2.99719 2.9557C3.07169 2.87414 3.16237 2.809 3.26344 2.76442C3.36451 2.71984 3.47376 2.6968 3.58422 2.69678H13.226C13.3451 2.69683 13.4627 2.72362 13.57 2.77518C13.6774 2.82673 13.7718 2.90173 13.8462 2.99465C13.9207 3.08757 13.9734 3.19602 14.0004 3.31202C14.0273 3.42801 14.0279 3.54858 14.0021 3.66482L13.1874 7.33702C13.0472 7.96809 12.696 8.53247 12.1918 8.93696C11.6875 9.34144 11.0604 9.56182 10.4139 9.5617H5.92934C5.22022 9.56174 4.53673 9.29655 4.01321 8.81823C3.4897 8.33992 3.16402 7.68309 3.1002 6.97685L2.79229 3.5637ZM3.9569 3.83298L4.23186 6.87459C4.27017 7.29853 4.46573 7.69279 4.78008 7.9798C5.09443 8.26682 5.50481 8.42581 5.93048 8.4255H10.4151C10.8028 8.42541 11.179 8.29307 11.4814 8.05035C11.7838 7.80763 11.9944 7.46903 12.0785 7.09047L12.8022 3.83298H3.9569Z" fill="#333333"/>
<path fill-rule="evenodd" clip-rule="evenodd" d="M0.442383 0.790024C0.442383 0.639355 0.502236 0.494856 0.608776 0.388317C0.715315 0.281777 0.859814 0.221924 1.01048 0.221924H3.00338C3.14234 0.222065 3.27643 0.273134 3.38028 0.365468C3.48413 0.457802 3.55054 0.584997 3.56694 0.722988L4.02369 4.58721C4.04132 4.73697 3.99873 4.88761 3.90529 5.00597C3.81186 5.12434 3.67523 5.20074 3.52546 5.21837C3.3757 5.236 3.22506 5.19341 3.1067 5.09997C2.98833 5.00654 2.91193 4.86991 2.8943 4.72014L2.49777 1.35699H1.01048C0.859814 1.35699 0.715315 1.29714 0.608776 1.1906C0.502236 1.08406 0.442383 0.940694 0.442383 0.790024ZM5.55529 12.5304C5.70596 12.5304 5.85046 12.4705 5.957 12.364C6.06353 12.2575 6.12339 12.113 6.12339 11.9623C6.12339 11.8116 6.06353 11.6671 5.957 11.5606C5.85046 11.454 5.70596 11.3942 5.55529 11.3942C5.40462 11.3942 5.26012 11.454 5.15358 11.5606C5.04704 11.6671 4.98719 11.8116 4.98719 11.9623C4.98719 12.113 5.04704 12.2575 5.15358 12.364C5.26012 12.4705 5.40462 12.5304 5.55529 12.5304ZM5.55529 13.6666C5.7791 13.6666 6.00072 13.6225 6.2075 13.5369C6.41427 13.4512 6.60215 13.3257 6.76041 13.1674C6.91867 13.0092 7.04421 12.8213 7.12986 12.6145C7.21551 12.4077 7.25959 12.1861 7.25959 11.9623C7.25959 11.7385 7.21551 11.5169 7.12986 11.3101C7.04421 11.1033 6.91867 10.9154 6.76041 10.7572C6.60215 10.5989 6.41427 10.4734 6.2075 10.3877C6.00072 10.3021 5.7791 10.258 5.55529 10.258C5.10328 10.258 4.66978 10.4375 4.35016 10.7572C4.03055 11.0768 3.85099 11.5103 3.85099 11.9623C3.85099 12.4143 4.03055 12.8478 4.35016 13.1674C4.66978 13.487 5.10328 13.6666 5.55529 13.6666ZM10.7386 12.5304C10.8893 12.5304 11.0338 12.4705 11.1403 12.364C11.2469 12.2575 11.3067 12.113 11.3067 11.9623C11.3067 11.8116 11.2469 11.6671 11.1403 11.5606C11.0338 11.454 10.8893 11.3942 10.7386 11.3942C10.588 11.3942 10.4435 11.454 10.3369 11.5606C10.2304 11.6671 10.1705 11.8116 10.1705 11.9623C10.1705 12.113 10.2304 12.2575 10.3369 12.364C10.4435 12.4705 10.588 12.5304 10.7386 12.5304ZM10.7386 13.6666C10.9624 13.6666 11.1841 13.6225 11.3908 13.5369C11.5976 13.4512 11.7855 13.3257 11.9438 13.1674C12.102 13.0092 12.2276 12.8213 12.3132 12.6145C12.3989 12.4077 12.4429 12.1861 12.4429 11.9623C12.4429 11.7385 12.3989 11.5169 12.3132 11.3101C12.2276 11.1033 12.102 10.9154 11.9438 10.7572C11.7855 10.5989 11.5976 10.4734 11.3908 10.3877C11.1841 10.3021 10.9624 10.258 10.7386 10.258C10.2866 10.258 9.85313 10.4375 9.53351 10.7572C9.21389 11.0768 9.03434 11.5103 9.03434 11.9623C9.03434 12.4143 9.21389 12.8478 9.53351 13.1674C9.85313 13.487 10.2866 13.6666 10.7386 13.6666Z" fill="#333333"/>
</svg>
